<svg id="visual" viewBox="0 0 960 540" width="960" height="540" xmlns="http://www.w3.org/2000/svg" xmlns:xlink="http://www.w3.org/1999/xlink" version="1.1"><rect x="0" y="0" width="960" height="540" fill="#fffcf2"></rect><defs><linearGradient id="grad1_0" x1="43.8%" y1="0%" x2="100%" y2="100%"><stop offset="14.444444444444446%" stop-color="#fbae3c" stop-opacity="1"></stop><stop offset="85.55555555555554%" stop-color="#fbae3c" stop-opacity="1"></stop></linearGradient></defs><defs><linearGradient id="grad1_1" x1="43.8%" y1="0%" x2="100%" y2="100%"><stop offset="14.444444444444446%" stop-color="#fbae3c" stop-opacity="1"></stop><stop offset="85.55555555555554%" stop-color="#fac46a" stop-opacity="1"></stop></linearGradient></defs><defs><linearGradient id="grad1_2" x1="43.8%" y1="0%" x2="100%" y2="100%"><stop offset="14.444444444444446%" stop-color="#f9d896" stop-opacity="1"></stop><stop offset="85.55555555555554%" stop-color="#fac46a" stop-opacity="1"></stop></linearGradient></defs><defs><linearGradient id="grad1_3" x1="43.8%" y1="0%" x2="100%" y2="100%"><stop offset="14.444444444444446%" stop-color="#f9d896" stop-opacity="1"></stop><stop offset="85.55555555555554%" stop-color="#fbebc4" stop-opacity="1"></stop></linearGradient></defs><defs><linearGradient id="grad1_4" x1="43.8%" y1="0%" x2="100%" y2="100%"><stop offset="14.444444444444446%" stop-color="#fffcf2" stop-opacity="1"></stop><stop offset="85.55555555555554%" stop-color="#fbebc4" stop-opacity="1"></stop></linearGradient></defs><defs><linearGradient id="grad2_0" x1="0%" y1="0%" x2="56.3%" y2="100%"><stop offset="14.444444444444446%" stop-color="#fbae3c" stop-opacity="1"></stop><stop offset="85.55555555555554%" stop-color="#fbae3c" stop-opacity="1"></stop></linearGradient></defs><defs><linearGradient id="grad2_1" x1="0%" y1="0%" x2="56.3%" y2="100%"><stop offset="14.444444444444446%" stop-color="#fac46a" stop-opacity="1"></stop><stop offset="85.55555555555554%" stop-color="#fbae3c" stop-opacity="1"></stop></linearGradient></defs><defs><linearGradient id="grad2_2" x1="0%" y1="0%" x2="56.3%" y2="100%"><stop offset="14.444444444444446%" stop-color="#fac46a" stop-opacity="1"></stop><stop offset="85.55555555555554%" stop-color="#f9d896" stop-opacity="1"></stop></linearGradient></defs><defs><linearGradient id="grad2_3" x1="0%" y1="0%" x2="56.3%" y2="100%"><stop offset="14.444444444444446%" stop-color="#fbebc4" stop-opacity="1"></stop><stop offset="85.55555555555554%" stop-color="#f9d896" stop-opacity="1"></stop></linearGradient></defs><defs><linearGradient id="grad2_4" x1="0%" y1="0%" x2="56.3%" y2="100%"><stop offset="14.444444444444446%" stop-color="#fbebc4" stop-opacity="1"></stop><stop offset="85.55555555555554%" stop-color="#fffcf2" stop-opacity="1"></stop></linearGradient></defs><g transform="translate(960, 0)"><path d="M0 324C-21 303.3 -42 282.5 -61.2 268.1C-80.4 253.7 -97.9 245.5 -112.4 233.4C-126.8 221.2 -138.3 205 -155.2 194.7C-172.2 184.3 -194.7 179.7 -211.9 169C-229 158.2 -240.7 141.3 -259.5 125C-278.2 108.6 -304 92.8 -315.9 72.1C-327.8 51.4 -325.9 25.7 -324 0L0 0Z" fill="#fcf4db"></path><path d="M0 259.2C-16.8 242.6 -33.6 226 -49 214.5C-64.3 202.9 -78.3 196.4 -89.9 186.7C-101.5 177 -110.6 164 -124.2 155.7C-137.8 147.4 -155.8 143.8 -169.5 135.2C-183.2 126.6 -192.6 113 -207.6 100C-222.6 86.9 -243.2 74.3 -252.7 57.7C-262.2 41.1 -260.7 20.5 -259.2 0L0 0Z" fill="#fae2ad"></path><path d="M0 194.4C-12.6 182 -25.2 169.5 -36.7 160.9C-48.3 152.2 -58.7 147.3 -67.4 140C-76.1 132.7 -83 123 -93.1 116.8C-103.3 110.6 -116.8 107.8 -127.1 101.4C-137.4 94.9 -144.4 84.8 -155.7 75C-166.9 65.2 -182.4 55.7 -189.5 43.3C-196.7 30.8 -195.5 15.4 -194.4 0L0 0Z" fill="#f9cf80"></path><path d="M0 129.6C-8.4 121.3 -16.8 113 -24.5 107.2C-32.2 101.5 -39.2 98.2 -45 93.3C-50.7 88.5 -55.3 82 -62.1 77.9C-68.9 73.7 -77.9 71.9 -84.8 67.6C-91.6 63.3 -96.3 56.5 -103.8 50C-111.3 43.4 -121.6 37.1 -126.4 28.8C-131.1 20.5 -130.4 10.3 -129.6 0L0 0Z" fill="#fab953"></path><path d="M0 64.8C-4.2 60.7 -8.4 56.5 -12.2 53.6C-16.1 50.7 -19.6 49.1 -22.5 46.7C-25.4 44.2 -27.7 41 -31 38.9C-34.4 36.9 -38.9 35.9 -42.4 33.8C-45.8 31.6 -48.1 28.3 -51.9 25C-55.6 21.7 -60.8 18.6 -63.2 14.4C-65.6 10.3 -65.2 5.1 -64.8 0L0 0Z" fill="#fbae3c"></path></g><g transform="translate(0, 540)"><path d="M0 -324C16.1 -286 32.2 -248 56.5 -247.6C80.8 -247.2 113.3 -284.4 140.6 -291.9C167.9 -299.4 190.1 -277.2 198.9 -249.4C207.7 -221.7 203.1 -188.4 207.2 -165.2C211.2 -142 223.9 -128.9 237 -114.1C250 -99.3 263.3 -82.7 277.9 -63.4C292.4 -44.1 308.2 -22.1 324 0L0 0Z" fill="#fcf4db"></path><path d="M0 -259.2C12.9 -228.8 25.8 -198.4 45.2 -198.1C64.6 -197.8 90.6 -227.5 112.5 -233.5C134.3 -239.5 152.1 -221.7 159.1 -199.5C166.2 -177.3 162.5 -150.7 165.7 -132.2C169 -113.6 179.2 -103.2 189.6 -91.3C200 -79.4 210.6 -66.2 222.3 -50.7C233.9 -35.3 246.6 -17.6 259.2 0L0 0Z" fill="#fae2ad"></path><path d="M0 -194.4C9.7 -171.6 19.3 -148.8 33.9 -148.6C48.5 -148.3 68 -170.7 84.3 -175.1C100.7 -179.6 114.1 -166.3 119.3 -149.6C124.6 -133 121.9 -113 124.3 -99.1C126.7 -85.2 134.4 -77.4 142.2 -68.5C150 -59.6 158 -49.6 166.7 -38.1C175.4 -26.5 184.9 -13.2 194.4 0L0 0Z" fill="#f9cf80"></path><path d="M0 -129.6C6.4 -114.4 12.9 -99.2 22.6 -99.1C32.3 -98.9 45.3 -113.8 56.2 -116.8C67.2 -119.8 76 -110.9 79.6 -99.8C83.1 -88.7 81.2 -75.4 82.9 -66.1C84.5 -56.8 89.6 -51.6 94.8 -45.6C100 -39.7 105.3 -33.1 111.1 -25.4C117 -17.6 123.3 -8.8 129.6 0L0 0Z" fill="#fab953"></path><path d="M0 -64.8C3.2 -57.2 6.4 -49.6 11.3 -49.5C16.2 -49.4 22.7 -56.9 28.1 -58.4C33.6 -59.9 38 -55.4 39.8 -49.9C41.5 -44.3 40.6 -37.7 41.4 -33C42.2 -28.4 44.8 -25.8 47.4 -22.8C50 -19.9 52.7 -16.5 55.6 -12.7C58.5 -8.8 61.6 -4.4 64.8 0L0 0Z" fill="#fbae3c"></path></g></svg>